# This file uses centimeters as units for non-parametric coordinates.

v -0.019169 -0.027525 0.062525
v 0.019168 -0.027525 0.062525
v -0.019169 0.027525 0.062525
v 0.019168 0.027525 0.062525
v -0.019169 0.027525 -0.062525
v 0.019168 0.027525 -0.062525
v -0.019169 -0.027525 -0.062525
v 0.019168 -0.027525 -0.062525
v -0.136759 -0.023016 0.055701
v 0.136759 -0.023016 0.055701
v -0.136759 0.023016 0.055701
v 0.136759 0.023016 0.055701
v -0.136759 0.023016 -0.055701
v 0.136759 0.023016 -0.055701
v -0.136759 -0.023016 -0.055701
v 0.136759 -0.023016 -0.055701
vt 0.357360 0.012340
vt 0.357360 0.012340
vt 0.357360 0.012340
vt 0.357360 0.012340
vt 0.357360 0.012340
vt 0.357360 0.012340
vt 0.357360 0.012340
vt 0.357360 0.012340
vt 0.357360 0.012340
vt 0.357360 0.012340
vt 0.357360 0.012340
vt 0.357360 0.012340
vt 0.357360 0.012340
vt 0.357360 0.012340
vt 0.357360 0.012340
vt 0.357360 0.012340
vt 0.669081 0.407043
vt 0.669081 0.407042
vt 0.623575 0.407043
vt 0.623575 0.407043
vt 0.503749 0.373682
vt 0.623970 0.373682
vt 0.623970 0.434205
vt 0.503749 0.434205
vt 0.623575 0.407043
vt 0.623575 0.407043
vt 0.669081 0.407043
vt 0.669081 0.407043
vt 0.503749 0.434205
vt 0.623970 0.434205
vt 0.623970 0.373682
vt 0.503749 0.373682
vn 0.000000 0.000000 1.000000
vn 0.000000 0.000000 1.000000
vn 0.000000 0.000000 1.000000
vn 0.000000 0.000000 1.000000
vn 0.000000 1.000000 0.000000
vn 0.000000 1.000000 0.000000
vn 0.000000 1.000000 0.000000
vn 0.000000 1.000000 0.000000
vn 0.000000 0.000000 -1.000000
vn 0.000000 0.000000 -1.000000
vn 0.000000 0.000000 -1.000000
vn 0.000000 0.000000 -1.000000
vn 0.000000 -1.000000 0.000000
vn 0.000000 -1.000000 0.000000
vn 0.000000 -1.000000 0.000000
vn 0.000000 -1.000000 0.000000
vn 1.000000 0.000000 0.000000
vn 1.000000 0.000000 0.000000
vn 1.000000 0.000000 0.000000
vn 1.000000 0.000000 0.000000
vn -1.000000 0.000000 0.000000
vn -1.000000 0.000000 0.000000
vn -1.000000 0.000000 0.000000
vn -1.000000 0.000000 0.000000
vn 0.000000 0.000000 1.000000
vn 0.000000 0.000000 1.000000
vn 0.000000 0.000000 1.000000
vn 0.000000 0.000000 1.000000
vn 0.000000 1.000000 0.000000
vn 0.000000 1.000000 0.000000
vn 0.000000 1.000000 0.000000
vn 0.000000 1.000000 0.000000
vn 0.000000 0.000000 -1.000000
vn 0.000000 0.000000 -1.000000
vn 0.000000 0.000000 -1.000000
vn 0.000000 0.000000 -1.000000
vn 0.000000 -1.000000 0.000000
vn 0.000000 -1.000000 0.000000
vn 0.000000 -1.000000 0.000000
vn 0.000000 -1.000000 0.000000
vn 1.000000 0.000000 0.000000
vn 1.000000 0.000000 0.000000
vn 1.000000 0.000000 0.000000
vn 1.000000 0.000000 0.000000
vn -1.000000 0.000000 0.000000
vn -1.000000 0.000000 0.000000
vn -1.000000 0.000000 0.000000
vn -1.000000 0.000000 0.000000
s off
f 1/1/1 2/2/2 4/3/3 3/4/4
f 3/7/5 4/8/6 6/9/7 5/10/8
f 5/5/9 6/6/10 8/11/11 7/12/12
f 7/16/13 8/15/14 2/14/15 1/13/16
f 2/2/17 8/11/18 6/6/19 4/3/20
f 7/12/21 1/1/22 3/4/23 5/5/24
f 9/17/25 10/18/26 12/19/27 11/20/28
f 11/21/29 12/22/30 14/23/31 13/24/32
f 13/25/33 14/26/34 16/27/35 15/28/36
f 15/29/37 16/30/38 10/31/39 9/32/40
f 10/18/41 16/27/42 14/26/43 12/19/44
f 15/28/45 9/17/46 11/20/47 13/25/48
